<mxfile host="app.diagrams.net" modified="2022-08-05T06:38:31.016Z" agent="5.0 (Windows NT 10.0; Win64; x64) AppleWebKit/537.36 (KHTML, like Gecko) Chrome/103.0.0.0 Safari/537.36" etag="KN5NV0b96Z54H4atdk_p" version="20.1.1" type="github">
  <diagram id="ecnpQwJv_U_HYYEx4sPf" name="Page-1">
    <mxGraphModel dx="2002" dy="679" grid="1" gridSize="10" guides="1" tooltips="1" connect="1" arrows="1" fold="1" page="1" pageScale="1" pageWidth="850" pageHeight="1100" math="0" shadow="0">
      <root>
        <mxCell id="0" />
        <mxCell id="1" parent="0" />
        <mxCell id="kETdp8RxObP3-hY1ZDIA-3" value="" style="edgeStyle=orthogonalEdgeStyle;rounded=0;orthogonalLoop=1;jettySize=auto;html=1;" parent="1" source="kETdp8RxObP3-hY1ZDIA-1" target="kETdp8RxObP3-hY1ZDIA-2" edge="1">
          <mxGeometry relative="1" as="geometry" />
        </mxCell>
        <mxCell id="kETdp8RxObP3-hY1ZDIA-1" value="Input Scanned Document" style="shape=parallelogram;perimeter=parallelogramPerimeter;whiteSpace=wrap;html=1;fixedSize=1;" parent="1" vertex="1">
          <mxGeometry x="80" y="70" width="120" height="60" as="geometry" />
        </mxCell>
        <mxCell id="kETdp8RxObP3-hY1ZDIA-5" value="" style="edgeStyle=orthogonalEdgeStyle;rounded=0;orthogonalLoop=1;jettySize=auto;html=1;" parent="1" source="kETdp8RxObP3-hY1ZDIA-2" target="kETdp8RxObP3-hY1ZDIA-4" edge="1">
          <mxGeometry relative="1" as="geometry" />
        </mxCell>
        <mxCell id="kETdp8RxObP3-hY1ZDIA-2" value="Text Detection Module" style="whiteSpace=wrap;html=1;" parent="1" vertex="1">
          <mxGeometry x="80" y="200" width="120" height="60" as="geometry" />
        </mxCell>
        <mxCell id="kETdp8RxObP3-hY1ZDIA-8" value="" style="edgeStyle=orthogonalEdgeStyle;rounded=0;orthogonalLoop=1;jettySize=auto;html=1;" parent="1" source="kETdp8RxObP3-hY1ZDIA-4" target="kETdp8RxObP3-hY1ZDIA-7" edge="1">
          <mxGeometry relative="1" as="geometry" />
        </mxCell>
        <mxCell id="kETdp8RxObP3-hY1ZDIA-25" value="" style="edgeStyle=orthogonalEdgeStyle;rounded=0;orthogonalLoop=1;jettySize=auto;html=1;fontSize=16;" parent="1" source="kETdp8RxObP3-hY1ZDIA-4" target="kETdp8RxObP3-hY1ZDIA-24" edge="1">
          <mxGeometry relative="1" as="geometry" />
        </mxCell>
        <mxCell id="kETdp8RxObP3-hY1ZDIA-4" value="Text Boxes" style="shape=parallelogram;perimeter=parallelogramPerimeter;whiteSpace=wrap;html=1;fixedSize=1;" parent="1" vertex="1">
          <mxGeometry x="80" y="290" width="120" height="60" as="geometry" />
        </mxCell>
        <mxCell id="kETdp8RxObP3-hY1ZDIA-20" value="" style="edgeStyle=orthogonalEdgeStyle;rounded=0;orthogonalLoop=1;jettySize=auto;html=1;" parent="1" source="kETdp8RxObP3-hY1ZDIA-7" target="kETdp8RxObP3-hY1ZDIA-9" edge="1">
          <mxGeometry relative="1" as="geometry" />
        </mxCell>
        <mxCell id="kETdp8RxObP3-hY1ZDIA-7" value="Text Recognition Module" style="whiteSpace=wrap;html=1;" parent="1" vertex="1">
          <mxGeometry x="-70" y="290" width="120" height="60" as="geometry" />
        </mxCell>
        <mxCell id="kETdp8RxObP3-hY1ZDIA-9" value="Recognized &lt;br&gt;Words" style="shape=parallelogram;perimeter=parallelogramPerimeter;whiteSpace=wrap;html=1;fixedSize=1;" parent="1" vertex="1">
          <mxGeometry x="-220" y="290" width="120" height="60" as="geometry" />
        </mxCell>
        <mxCell id="kETdp8RxObP3-hY1ZDIA-14" value="" style="edgeStyle=orthogonalEdgeStyle;rounded=0;orthogonalLoop=1;jettySize=auto;html=1;" parent="1" source="kETdp8RxObP3-hY1ZDIA-11" target="kETdp8RxObP3-hY1ZDIA-13" edge="1">
          <mxGeometry relative="1" as="geometry" />
        </mxCell>
        <mxCell id="kETdp8RxObP3-hY1ZDIA-11" value="Figure Detection Module" style="whiteSpace=wrap;html=1;" parent="1" vertex="1">
          <mxGeometry x="240" y="200" width="120" height="60" as="geometry" />
        </mxCell>
        <mxCell id="kETdp8RxObP3-hY1ZDIA-12" value="" style="endArrow=classic;html=1;rounded=0;exitX=0.5;exitY=1;exitDx=0;exitDy=0;entryX=0.5;entryY=0;entryDx=0;entryDy=0;" parent="1" source="kETdp8RxObP3-hY1ZDIA-1" target="kETdp8RxObP3-hY1ZDIA-11" edge="1">
          <mxGeometry width="50" height="50" relative="1" as="geometry">
            <mxPoint x="560" y="370" as="sourcePoint" />
            <mxPoint x="610" y="320" as="targetPoint" />
            <Array as="points">
              <mxPoint x="140" y="180" />
              <mxPoint x="300" y="180" />
            </Array>
          </mxGeometry>
        </mxCell>
        <mxCell id="kETdp8RxObP3-hY1ZDIA-13" value="Figure Boxes" style="shape=parallelogram;perimeter=parallelogramPerimeter;whiteSpace=wrap;html=1;fixedSize=1;" parent="1" vertex="1">
          <mxGeometry x="240" y="290" width="120" height="60" as="geometry" />
        </mxCell>
        <mxCell id="kETdp8RxObP3-hY1ZDIA-19" value="" style="edgeStyle=orthogonalEdgeStyle;rounded=0;orthogonalLoop=1;jettySize=auto;html=1;" parent="1" source="kETdp8RxObP3-hY1ZDIA-15" target="kETdp8RxObP3-hY1ZDIA-18" edge="1">
          <mxGeometry relative="1" as="geometry" />
        </mxCell>
        <mxCell id="kETdp8RxObP3-hY1ZDIA-15" value="Table Extraction Module" style="whiteSpace=wrap;html=1;" parent="1" vertex="1">
          <mxGeometry x="400" y="200" width="120" height="60" as="geometry" />
        </mxCell>
        <mxCell id="kETdp8RxObP3-hY1ZDIA-17" value="" style="endArrow=classic;html=1;rounded=0;exitX=0.5;exitY=1;exitDx=0;exitDy=0;entryX=0.5;entryY=0;entryDx=0;entryDy=0;" parent="1" source="kETdp8RxObP3-hY1ZDIA-1" target="kETdp8RxObP3-hY1ZDIA-15" edge="1">
          <mxGeometry width="50" height="50" relative="1" as="geometry">
            <mxPoint x="240" y="370" as="sourcePoint" />
            <mxPoint x="290" y="320" as="targetPoint" />
            <Array as="points">
              <mxPoint x="140" y="180" />
              <mxPoint x="460" y="180" />
            </Array>
          </mxGeometry>
        </mxCell>
        <mxCell id="kETdp8RxObP3-hY1ZDIA-18" value="Table Contents" style="shape=parallelogram;perimeter=parallelogramPerimeter;whiteSpace=wrap;html=1;fixedSize=1;" parent="1" vertex="1">
          <mxGeometry x="400" y="290" width="120" height="60" as="geometry" />
        </mxCell>
        <mxCell id="kETdp8RxObP3-hY1ZDIA-23" value="" style="endArrow=classic;html=1;rounded=0;exitX=0.4;exitY=1.044;exitDx=0;exitDy=0;exitPerimeter=0;entryX=0.5;entryY=0;entryDx=0;entryDy=0;" parent="1" source="kETdp8RxObP3-hY1ZDIA-9" target="kETdp8RxObP3-hY1ZDIA-24" edge="1">
          <mxGeometry width="50" height="50" relative="1" as="geometry">
            <mxPoint x="230" y="370" as="sourcePoint" />
            <mxPoint x="-80" y="380" as="targetPoint" />
            <Array as="points">
              <mxPoint x="-172" y="370" />
              <mxPoint x="140" y="370" />
            </Array>
          </mxGeometry>
        </mxCell>
        <mxCell id="kETdp8RxObP3-hY1ZDIA-29" value="" style="edgeStyle=orthogonalEdgeStyle;rounded=0;orthogonalLoop=1;jettySize=auto;html=1;fontSize=16;" parent="1" source="kETdp8RxObP3-hY1ZDIA-24" target="kETdp8RxObP3-hY1ZDIA-28" edge="1">
          <mxGeometry relative="1" as="geometry" />
        </mxCell>
        <mxCell id="kETdp8RxObP3-hY1ZDIA-24" value="&lt;b&gt;&lt;font style=&quot;font-size: 16px;&quot;&gt;+&lt;/font&gt;&lt;/b&gt;" style="ellipse;whiteSpace=wrap;html=1;aspect=fixed;" parent="1" vertex="1">
          <mxGeometry x="120" y="400" width="40" height="40" as="geometry" />
        </mxCell>
        <mxCell id="kETdp8RxObP3-hY1ZDIA-26" value="" style="endArrow=classic;html=1;rounded=0;fontSize=16;exitX=0.444;exitY=1.033;exitDx=0;exitDy=0;exitPerimeter=0;entryX=0.5;entryY=0;entryDx=0;entryDy=0;" parent="1" source="kETdp8RxObP3-hY1ZDIA-13" target="kETdp8RxObP3-hY1ZDIA-24" edge="1">
          <mxGeometry width="50" height="50" relative="1" as="geometry">
            <mxPoint x="230" y="360" as="sourcePoint" />
            <mxPoint x="280" y="310" as="targetPoint" />
            <Array as="points">
              <mxPoint x="293" y="370" />
              <mxPoint x="140" y="370" />
            </Array>
          </mxGeometry>
        </mxCell>
        <mxCell id="kETdp8RxObP3-hY1ZDIA-27" value="" style="endArrow=classic;html=1;rounded=0;fontSize=16;exitX=0.5;exitY=1;exitDx=0;exitDy=0;entryX=0.5;entryY=0;entryDx=0;entryDy=0;" parent="1" source="kETdp8RxObP3-hY1ZDIA-18" target="kETdp8RxObP3-hY1ZDIA-24" edge="1">
          <mxGeometry width="50" height="50" relative="1" as="geometry">
            <mxPoint x="230" y="360" as="sourcePoint" />
            <mxPoint x="280" y="310" as="targetPoint" />
            <Array as="points">
              <mxPoint x="460" y="370" />
              <mxPoint x="140" y="370" />
            </Array>
          </mxGeometry>
        </mxCell>
        <mxCell id="kETdp8RxObP3-hY1ZDIA-28" value="Document Fundamental Information" style="shape=parallelogram;perimeter=parallelogramPerimeter;whiteSpace=wrap;html=1;fixedSize=1;" parent="1" vertex="1">
          <mxGeometry x="80" y="490" width="120" height="60" as="geometry" />
        </mxCell>
        <mxCell id="kETdp8RxObP3-hY1ZDIA-30" value="" style="rounded=0;whiteSpace=wrap;html=1;fontSize=16;dashed=1;fillColor=none;" parent="1" vertex="1">
          <mxGeometry x="-230" y="160" width="770" height="290" as="geometry" />
        </mxCell>
        <mxCell id="kETdp8RxObP3-hY1ZDIA-32" value="&lt;font style=&quot;font-size: 13px;&quot;&gt;Fundamental Information Extractor Module&lt;/font&gt;" style="rounded=0;whiteSpace=wrap;html=1;dashed=1;fontSize=16;fillColor=none;strokeColor=none;" parent="1" vertex="1">
          <mxGeometry x="-200" y="180" width="120" height="60" as="geometry" />
        </mxCell>
        <mxCell id="kETdp8RxObP3-hY1ZDIA-37" value="" style="edgeStyle=orthogonalEdgeStyle;rounded=0;orthogonalLoop=1;jettySize=auto;html=1;fontSize=13;" parent="1" source="kETdp8RxObP3-hY1ZDIA-34" target="kETdp8RxObP3-hY1ZDIA-36" edge="1">
          <mxGeometry relative="1" as="geometry" />
        </mxCell>
        <mxCell id="kETdp8RxObP3-hY1ZDIA-34" value="Document Fundamental Information" style="shape=parallelogram;perimeter=parallelogramPerimeter;whiteSpace=wrap;html=1;fixedSize=1;" parent="1" vertex="1">
          <mxGeometry x="-220" y="600" width="120" height="60" as="geometry" />
        </mxCell>
        <mxCell id="kETdp8RxObP3-hY1ZDIA-39" value="" style="edgeStyle=orthogonalEdgeStyle;rounded=0;orthogonalLoop=1;jettySize=auto;html=1;fontSize=13;" parent="1" source="kETdp8RxObP3-hY1ZDIA-36" target="kETdp8RxObP3-hY1ZDIA-38" edge="1">
          <mxGeometry relative="1" as="geometry" />
        </mxCell>
        <mxCell id="kETdp8RxObP3-hY1ZDIA-36" value="Document Layout Analysis Module" style="rounded=0;whiteSpace=wrap;html=1;fontSize=13;fillColor=none;" parent="1" vertex="1">
          <mxGeometry x="-70" y="600" width="120" height="60" as="geometry" />
        </mxCell>
        <mxCell id="kETdp8RxObP3-hY1ZDIA-38" value="Paragraph &lt;br&gt;Contents" style="shape=parallelogram;perimeter=parallelogramPerimeter;whiteSpace=wrap;html=1;fixedSize=1;" parent="1" vertex="1">
          <mxGeometry x="120" y="600" width="120" height="60" as="geometry" />
        </mxCell>
        <mxCell id="kETdp8RxObP3-hY1ZDIA-40" value="Header Contents" style="shape=parallelogram;perimeter=parallelogramPerimeter;whiteSpace=wrap;html=1;fixedSize=1;" parent="1" vertex="1">
          <mxGeometry x="120" y="690" width="120" height="60" as="geometry" />
        </mxCell>
        <mxCell id="kETdp8RxObP3-hY1ZDIA-41" value="Footer Contents" style="shape=parallelogram;perimeter=parallelogramPerimeter;whiteSpace=wrap;html=1;fixedSize=1;" parent="1" vertex="1">
          <mxGeometry x="120" y="780" width="120" height="60" as="geometry" />
        </mxCell>
        <mxCell id="kETdp8RxObP3-hY1ZDIA-42" value="Figure Contents" style="shape=parallelogram;perimeter=parallelogramPerimeter;whiteSpace=wrap;html=1;fixedSize=1;" parent="1" vertex="1">
          <mxGeometry x="120" y="880" width="120" height="60" as="geometry" />
        </mxCell>
        <mxCell id="kETdp8RxObP3-hY1ZDIA-43" value="Table Contents" style="shape=parallelogram;perimeter=parallelogramPerimeter;whiteSpace=wrap;html=1;fixedSize=1;" parent="1" vertex="1">
          <mxGeometry x="120" y="980" width="120" height="60" as="geometry" />
        </mxCell>
        <mxCell id="kETdp8RxObP3-hY1ZDIA-44" value="" style="endArrow=classic;html=1;rounded=0;fontSize=13;exitX=1;exitY=0.5;exitDx=0;exitDy=0;entryX=0;entryY=0.5;entryDx=0;entryDy=0;" parent="1" source="kETdp8RxObP3-hY1ZDIA-36" target="kETdp8RxObP3-hY1ZDIA-40" edge="1">
          <mxGeometry width="50" height="50" relative="1" as="geometry">
            <mxPoint x="230" y="840" as="sourcePoint" />
            <mxPoint x="280" y="790" as="targetPoint" />
            <Array as="points">
              <mxPoint x="90" y="630" />
              <mxPoint x="90" y="720" />
            </Array>
          </mxGeometry>
        </mxCell>
        <mxCell id="kETdp8RxObP3-hY1ZDIA-45" value="" style="endArrow=classic;html=1;rounded=0;fontSize=13;exitX=1;exitY=0.5;exitDx=0;exitDy=0;entryX=0;entryY=0.5;entryDx=0;entryDy=0;" parent="1" source="kETdp8RxObP3-hY1ZDIA-36" target="kETdp8RxObP3-hY1ZDIA-41" edge="1">
          <mxGeometry width="50" height="50" relative="1" as="geometry">
            <mxPoint x="230" y="840" as="sourcePoint" />
            <mxPoint x="280" y="790" as="targetPoint" />
            <Array as="points">
              <mxPoint x="90" y="630" />
              <mxPoint x="90" y="810" />
            </Array>
          </mxGeometry>
        </mxCell>
        <mxCell id="kETdp8RxObP3-hY1ZDIA-46" value="" style="endArrow=classic;html=1;rounded=0;fontSize=13;exitX=1;exitY=0.5;exitDx=0;exitDy=0;entryX=0;entryY=0.5;entryDx=0;entryDy=0;" parent="1" source="kETdp8RxObP3-hY1ZDIA-36" target="kETdp8RxObP3-hY1ZDIA-42" edge="1">
          <mxGeometry width="50" height="50" relative="1" as="geometry">
            <mxPoint x="230" y="840" as="sourcePoint" />
            <mxPoint x="280" y="790" as="targetPoint" />
            <Array as="points">
              <mxPoint x="90" y="630" />
              <mxPoint x="90" y="910" />
            </Array>
          </mxGeometry>
        </mxCell>
        <mxCell id="kETdp8RxObP3-hY1ZDIA-47" value="" style="endArrow=classic;html=1;rounded=0;fontSize=13;exitX=1;exitY=0.5;exitDx=0;exitDy=0;entryX=0;entryY=0.5;entryDx=0;entryDy=0;" parent="1" source="kETdp8RxObP3-hY1ZDIA-36" target="kETdp8RxObP3-hY1ZDIA-43" edge="1">
          <mxGeometry width="50" height="50" relative="1" as="geometry">
            <mxPoint x="230" y="840" as="sourcePoint" />
            <mxPoint x="280" y="790" as="targetPoint" />
            <Array as="points">
              <mxPoint x="90" y="630" />
              <mxPoint x="90" y="1010" />
            </Array>
          </mxGeometry>
        </mxCell>
        <mxCell id="Mpa-sqii6zv5t1rp6nwB-1" value="List Contents" style="shape=parallelogram;perimeter=parallelogramPerimeter;whiteSpace=wrap;html=1;fixedSize=1;" vertex="1" parent="1">
          <mxGeometry x="120" y="1080" width="120" height="60" as="geometry" />
        </mxCell>
        <mxCell id="Mpa-sqii6zv5t1rp6nwB-2" value="" style="endArrow=classic;html=1;rounded=0;fontSize=13;exitX=1;exitY=0.5;exitDx=0;exitDy=0;entryX=0;entryY=0.5;entryDx=0;entryDy=0;" edge="1" parent="1" source="kETdp8RxObP3-hY1ZDIA-36" target="Mpa-sqii6zv5t1rp6nwB-1">
          <mxGeometry width="50" height="50" relative="1" as="geometry">
            <mxPoint x="190" y="670" as="sourcePoint" />
            <mxPoint x="240" y="620" as="targetPoint" />
            <Array as="points">
              <mxPoint x="90" y="630" />
              <mxPoint x="90" y="1110" />
            </Array>
          </mxGeometry>
        </mxCell>
        <mxCell id="Mpa-sqii6zv5t1rp6nwB-3" value="List Contents" style="shape=parallelogram;perimeter=parallelogramPerimeter;whiteSpace=wrap;html=1;fixedSize=1;" vertex="1" parent="1">
          <mxGeometry x="120" y="1180" width="120" height="60" as="geometry" />
        </mxCell>
        <mxCell id="Mpa-sqii6zv5t1rp6nwB-4" value="" style="endArrow=classic;html=1;rounded=0;fontSize=13;exitX=1;exitY=0.5;exitDx=0;exitDy=0;entryX=0;entryY=0.5;entryDx=0;entryDy=0;" edge="1" parent="1" source="kETdp8RxObP3-hY1ZDIA-36" target="Mpa-sqii6zv5t1rp6nwB-3">
          <mxGeometry width="50" height="50" relative="1" as="geometry">
            <mxPoint x="190" y="970" as="sourcePoint" />
            <mxPoint x="240" y="920" as="targetPoint" />
            <Array as="points">
              <mxPoint x="90" y="630" />
              <mxPoint x="90" y="1210" />
            </Array>
          </mxGeometry>
        </mxCell>
      </root>
    </mxGraphModel>
  </diagram>
</mxfile>
